Coordinates
version=1
nRows=6
nColumns=36
inDegrees=yes

Units are S.I. units (second, meters, Newtons, ...)
If the header above contains a line with 'inDegrees', this indicates whether rotational values are in degrees (yes) or radians (no).

endheader
time	pelvis_tilt	pelvis_list	pelvis_rotation	pelvis_tx	pelvis_ty	pelvis_tz	hip_flexion_r	hip_adduction_r	hip_rotation_r	knee_angle_r	knee_angle_r_beta	ankle_angle_r	subtalar_angle_r	mtp_angle_r	hip_flexion_l	hip_adduction_l	hip_rotation_l	knee_angle_l	knee_angle_l_beta	ankle_angle_l	subtalar_angle_l	mtp_angle_l	lumbar_extension	lumbar_bending	lumbar_rotation	arm_flex_r	arm_add_r	arm_rot_r	elbow_flex_r	pro_sup_r	arm_flex_l	arm_add_l	arm_rot_l	elbow_flex_l	pro_sup_l
      6.50000000	     -4.98322695	     -0.88606071	      4.30101667	      0.37624632	      0.93451099	     -0.03756902	      1.19021472	     -4.38272398	    -13.18857485	      1.38410992	      0.02415728	      0.01820980	    -10.17309979	     -7.49999987	      2.98304778	     -4.80831756	     -3.94515155	      1.00605457	      0.01755896	      0.36013858	     -2.89356000	     -7.49999987	      5.31768452	     -0.20594009	      0.80122161	    175.88419247	    -13.88387031	     67.18855740	     24.85988630	     76.12076088	    119.25150201	      4.59599386	      9.28680163	     13.08447412	     88.66511162
      6.51666670	     -5.01518702	     -0.91208258	      4.35409514	      0.37641245	      0.93403594	     -0.03768755	      1.21725009	     -4.33982816	    -13.24197063	      1.35847495	      0.02370986	     -0.00926588	    -10.02088845	     -7.49999987	      3.04657406	     -4.85063301	     -3.94117478	      1.02355447	      0.01786440	      0.40659843	     -2.68594094	     -7.49999987	      5.23898619	     -0.13469472	      0.88053361	    176.49479505	    -13.46528894	     70.45054343	     22.71845002	     74.83560541	    119.16425329	      4.77877310	      9.48582098	     12.98243211	     85.62253183
      6.53333330	     -5.01219005	     -0.92887355	      4.42761224	      0.37626877	      0.93421080	     -0.03776063	      1.20863151	     -4.30569396	    -13.34061562	      1.33977772	      0.02338353	     -0.05306831	     -9.91790694	     -7.49999987	      3.07279256	     -4.90079362	     -3.90931055	      1.01051959	      0.01763689	      0.40847322	     -2.41421110	     -7.49999987	      5.21902357	     -0.11016226	      0.58590103	    176.11038687	    -13.45521199	     71.35813458	     22.60873043	     72.09470429	    119.12490174	      4.50298175	      9.20803189	     12.33707630	     87.79606829
      6.55000000	     -4.98695381	     -0.94509472	      4.43834568	      0.37633398	      0.93375681	     -0.03786230	      1.17712850	     -4.30012385	    -13.37985049	      1.35769018	      0.02369616	     -0.12610634	     -9.91585445	     -7.49999987	      3.05554673	     -4.94146535	     -3.85198636	      0.98595489	      0.01720816	      0.47945010	     -2.18907747	     -7.49999987	      5.25073248	      0.12940021	      1.28786930	    175.96477316	    -12.78857083	     71.58815585	     21.90267495	     72.46322950	    117.47921454	      4.48836109	     -7.73067330	     18.76800306	     95.67853826
      6.56666670	     -4.93846992	     -0.96142582	      4.42005033	      0.37613861	      0.93407887	     -0.03794751	      1.13567237	     -4.28742496	    -13.37604833	      1.38031837	      0.02409110	     -0.30800274	     -9.97506670	     -7.49999987	      3.01435488	     -4.97904440	     -3.82565491	      0.98483659	      0.01718864	      0.46000093	     -2.08980567	     -7.49999987	      5.27572903	      0.15400667	      2.10291231	    175.99292342	    -13.43462644	     72.37201229	     22.76222412	     71.77601639	    116.18160591	      5.36174771	     -9.42845306	     19.72697174	     90.50090376
      6.58333330	     -4.84805182	     -0.94900874	      4.41263349	      0.37620549	      0.93373940	     -0.03798927	      1.03819088	     -4.30638825	    -13.38051684	      1.42213267	      0.02482090	     -0.40686616	    -10.03608271	     -7.49999987	      2.89278747	     -4.98649207	     -3.76321303	      0.99284469	      0.01732841	      0.38816027	     -2.15410781	     -7.49999987	      5.29174211	      0.18440098	      2.10637863	    174.71713648	    -13.33566662	     68.92913911	     23.20639130	     73.28137143	    114.98670130	      6.02073385	    -11.66571574	     19.90595272	     96.62887031
